<svg width="342" height="302" viewBox="0 0 342 302" fill="none" xmlns="http://www.w3.org/2000/svg">
<path d="M104.708 51.0383V69.074H103.311C101.965 64.6531 99.3187 60.7383 95.7164 57.8377C92.5621 55.3459 88.6582 53.9897 84.6361 53.9885C81.1631 53.8649 77.7645 55.0125 75.0794 57.2153C72.3884 59.5843 70.5009 62.7294 69.6778 66.2159C68.6188 70.0874 68.0908 74.0844 68.1081 78.0976C68.0307 82.4634 68.6184 86.8155 69.8509 91.005C70.7167 94.2887 72.6999 97.1694 75.4603 99.1527C78.2006 100.94 81.4221 101.848 84.6938 101.757C85.9693 101.749 87.241 101.618 88.4911 101.365C89.849 101.081 91.1839 100.695 92.4846 100.213V89.5644C92.5734 88.2479 92.4328 86.9261 92.0691 85.6576C91.6746 84.9597 91.074 84.4003 90.3494 84.0557C89.3757 83.5574 88.2921 83.3117 87.1984 83.3412H85.8711V81.9468H110.779V83.3066C109.426 83.3156 108.087 83.5775 106.831 84.0788C106.049 84.5088 105.441 85.1974 105.111 86.0264C104.804 87.1515 104.687 88.3201 104.765 89.4837V100.132C101.483 101.59 98.0553 102.695 94.5391 103.428C90.9193 104.196 87.2287 104.582 83.5281 104.581C79.3985 104.702 75.2841 104.029 71.4091 102.599C68.3074 101.345 65.4365 99.5849 62.9143 97.3895C60.5491 95.3545 58.591 92.8911 57.1433 90.1291C55.3461 86.5066 54.44 82.5085 54.5002 78.4664C54.4245 74.8335 55.1033 71.2243 56.4939 67.8663C57.8844 64.5083 59.9565 61.4743 62.5795 58.9555C67.9658 53.6466 74.7832 50.9922 83.0318 50.9922C85.354 50.9721 87.6728 51.1728 89.9569 51.5914C91.7923 52.0214 93.5907 52.5956 95.3355 53.3086C96.7516 53.9334 98.2293 54.4085 99.7445 54.7261C100.472 54.7195 101.171 54.4445 101.707 53.9539C102.471 53.1269 103.022 52.126 103.311 51.0383H104.708Z" fill="#646464"/>
<path d="M141.248 51.0437C149.689 50.7262 156.547 53.1196 161.821 58.2241C164.418 60.7164 166.461 63.7026 167.822 66.9967C169.184 70.2909 169.834 73.8225 169.733 77.3719C169.849 83.633 167.765 89.745 163.826 94.6955C158.623 101.295 151.264 104.595 141.749 104.595C132.235 104.595 124.864 101.45 119.637 95.1602C115.509 90.1509 113.325 83.8859 113.468 77.4648C113.371 73.8911 114.04 70.3369 115.43 67.0284C116.821 63.7198 118.904 60.7294 121.547 58.2474C124.117 55.7532 127.203 53.8208 130.6 52.5787C133.997 51.3366 137.627 50.8133 141.248 51.0437ZM141.714 53.4721C136.869 53.4721 133.181 55.881 130.652 60.6989C128.599 64.6648 127.573 70.3464 127.573 77.7437C127.573 86.5507 129.164 93.0572 132.346 97.2632C133.399 98.6939 134.801 99.8467 136.426 100.618C138.051 101.388 139.848 101.753 141.654 101.678C144.045 101.759 146.4 101.091 148.372 99.7729C150.929 97.7752 152.795 95.0623 153.718 91.9999C155.136 87.4856 155.785 82.7758 155.64 78.0574C155.64 71.241 154.987 66.1404 153.683 62.7555C152.791 59.9349 151.059 57.4357 148.706 55.5751C146.664 54.1688 144.215 53.4322 141.714 53.4721Z" fill="#646464"/>
<path d="M221.347 85.7729L219.387 104.595H173.103V103.134H174.84C176.107 103.191 177.365 102.903 178.49 102.301C179.202 101.874 179.746 101.203 180.027 100.405C180.417 98.7756 180.559 97.0937 180.449 95.4192V60.1541C180.554 58.4317 180.412 56.7029 180.027 55.0231C179.664 54.2461 179.061 53.6139 178.314 53.2243C177.228 52.648 176.013 52.3812 174.793 52.4516H173.103V50.9908H200.892V52.4516H198.627C197.361 52.3918 196.101 52.6793 194.978 53.2846C194.255 53.7125 193.696 54.3812 193.393 55.1801C193.004 56.8058 192.862 58.4836 192.971 60.1541V94.3206C192.861 96.0816 193.019 97.8496 193.44 99.5602C193.613 99.9506 193.862 100.301 194.17 100.589C194.479 100.878 194.842 101.099 195.236 101.238C196.78 101.556 198.357 101.674 199.93 101.589H204.272C206.66 101.675 209.032 101.161 211.184 100.091C213.155 98.9671 214.806 97.3312 215.972 95.3468C217.657 92.3456 218.944 89.1257 219.798 85.7729H221.347Z" fill="#646464"/>
<path d="M224.027 104.593V103.132H225.8C227.042 103.212 228.283 102.958 229.395 102.396C230.196 101.943 230.834 101.245 231.216 100.404C231.558 98.7658 231.679 97.0886 231.576 95.4179V60.1539C231.683 58.4315 231.537 56.7027 231.144 55.023C230.773 54.246 230.158 53.6138 229.395 53.2242C228.287 52.648 227.045 52.3812 225.8 52.4516H224.027V50.9908H247.848C254.238 50.9908 259.35 51.86 263.185 53.5985C267.727 55.5501 271.513 58.9409 273.969 63.2565C276.007 67.0752 277.226 71.2831 277.546 75.6071C277.866 79.931 277.28 84.2744 275.826 88.3555C274.78 91.2549 273.194 93.9265 271.153 96.2268C269.266 98.2755 267.025 99.961 264.539 101.201C261.633 102.587 258.553 103.566 255.384 104.11C252.89 104.487 250.369 104.644 247.848 104.581L224.027 104.593ZM244.313 54.0331V95.8525C244.232 97.2207 244.337 98.5935 244.624 99.9331C244.836 100.429 245.213 100.835 245.691 101.08C246.646 101.508 247.69 101.699 248.734 101.635C253.112 101.635 256.447 100.13 258.739 97.1202C261.879 93.096 263.448 86.7981 263.448 78.2266C263.448 71.3452 262.378 65.8521 260.237 61.7475C258.875 58.8586 256.558 56.5368 253.683 55.18C251.806 54.3912 248.682 54.0089 244.313 54.0331Z" fill="#646464"/>
<path d="M103.708 50.0383V68.074H102.311C100.965 63.6531 98.3187 59.7383 94.7164 56.8377C91.5621 54.3459 87.6582 52.9897 83.6361 52.9885C80.1631 52.8649 76.7645 54.0125 74.0794 56.2153C71.3884 58.5843 69.5009 61.7294 68.6778 65.2159C67.6188 69.0874 67.0908 73.0844 67.1081 77.0976C67.0307 81.4634 67.6184 85.8155 68.8509 90.005C69.7167 93.2887 71.6999 96.1694 74.4603 98.1527C77.2006 99.9397 80.4221 100.848 83.6938 100.757C84.9693 100.749 86.241 100.618 87.4911 100.365C88.849 100.081 90.1839 99.6953 91.4846 99.213V88.5644C91.5734 87.2479 91.4328 85.9261 91.0691 84.6576C90.6746 83.9597 90.074 83.4003 89.3494 83.0557C88.3757 82.5574 87.2921 82.3117 86.1984 82.3412H84.8711V80.9468H109.779V82.3066C108.426 82.3156 107.087 82.5775 105.831 83.0788C105.049 83.5088 104.441 84.1974 104.111 85.0264C103.804 86.1515 103.687 87.3201 103.765 88.4837V99.1323C100.483 100.59 97.0553 101.695 93.5391 102.428C89.9193 103.196 86.2287 103.582 82.5281 103.581C78.3985 103.702 74.2841 103.029 70.4091 101.599C67.3074 100.345 64.4365 98.5849 61.9143 96.3895C59.5491 94.3545 57.591 91.8911 56.1433 89.1291C54.3461 85.5066 53.44 81.5085 53.5002 77.4664C53.4245 73.8335 54.1033 70.2243 55.4939 66.8663C56.8844 63.5083 58.9565 60.4743 61.5795 57.9555C66.9658 52.6466 73.7832 49.9922 82.0318 49.9922C84.354 49.9721 86.6728 50.1728 88.9569 50.5914C90.7923 51.0214 92.5907 51.5956 94.3355 52.3086C95.7516 52.9334 97.2293 53.4085 98.7445 53.7261C99.4716 53.7195 100.171 53.4445 100.707 52.9539C101.471 52.1269 102.022 51.126 102.311 50.0383H103.708Z" fill="url(#paint0_linear_112_742)"/>
<path d="M140.248 50.0437C148.689 49.7262 155.547 52.1196 160.821 57.2241C163.418 59.7164 165.461 62.7026 166.822 65.9967C168.184 69.2909 168.834 72.8225 168.733 76.3719C168.849 82.633 166.765 88.745 162.826 93.6955C157.623 100.295 150.264 103.595 140.749 103.595C131.235 103.595 123.864 100.45 118.637 94.1602C114.509 89.1509 112.325 82.8859 112.468 76.4648C112.371 72.8911 113.04 69.3369 114.43 66.0284C115.821 62.7198 117.904 59.7294 120.547 57.2474C123.117 54.7532 126.203 52.8208 129.6 51.5787C132.997 50.3366 136.627 49.8133 140.248 50.0437ZM140.714 52.4721C135.869 52.4721 132.181 54.881 129.652 59.6989C127.599 63.6648 126.573 69.3464 126.573 76.7437C126.573 85.5507 128.164 92.0572 131.346 96.2632C132.399 97.6939 133.801 98.8467 135.426 99.6175C137.051 100.388 138.848 100.753 140.654 100.678C143.045 100.759 145.4 100.091 147.372 98.7729C149.929 96.7752 151.795 94.0623 152.718 90.9999C154.136 86.4856 154.785 81.7758 154.64 77.0574C154.64 70.241 153.987 65.1404 152.683 61.7555C151.791 58.9349 150.059 56.4357 147.706 54.5751C145.664 53.1688 143.215 52.4322 140.714 52.4721Z" fill="url(#paint1_linear_112_742)"/>
<path d="M222.347 84.7729L220.387 103.595H174.103V102.134H175.84C177.107 102.191 178.365 101.903 179.49 101.301C180.202 100.874 180.746 100.203 181.027 99.4053C181.417 97.7756 181.559 96.0937 181.449 94.4192V59.1541C181.554 57.4317 181.412 55.7029 181.027 54.0231C180.664 53.2461 180.061 52.6139 179.314 52.2243C178.228 51.648 177.013 51.3812 175.793 51.4516H174.103V49.9908H201.892V51.4516H199.627C198.361 51.3918 197.101 51.6793 195.978 52.2846C195.255 52.7125 194.696 53.3812 194.393 54.1801C194.004 55.8058 193.862 57.4836 193.971 59.1541V93.3206C193.861 95.0816 194.019 96.8496 194.44 98.5602C194.613 98.9506 194.862 99.3007 195.17 99.5892C195.479 99.8777 195.842 100.099 196.236 100.238C197.78 100.556 199.357 100.674 200.93 100.589H205.272C207.66 100.675 210.032 100.161 212.184 99.0915C214.155 97.9671 215.806 96.3312 216.972 94.3468C218.657 91.3456 219.944 88.1257 220.798 84.7729H222.347Z" fill="url(#paint2_linear_112_742)"/>
<path d="M225.027 103.593V102.132H226.8C228.042 102.212 229.283 101.958 230.395 101.396C231.196 100.943 231.834 100.245 232.216 99.4039C232.558 97.7658 232.679 96.0886 232.576 94.4179V59.1539C232.683 57.4315 232.537 55.7027 232.144 54.023C231.773 53.246 231.158 52.6138 230.395 52.2242C229.287 51.648 228.045 51.3812 226.8 51.4516H225.027V49.9908H248.848C255.238 49.9908 260.35 50.86 264.185 52.5985C268.727 54.5501 272.513 57.9409 274.969 62.2565C277.007 66.0752 278.226 70.2831 278.546 74.6071C278.866 78.931 278.28 83.2744 276.826 87.3555C275.78 90.2549 274.194 92.9265 272.153 95.2268C270.266 97.2755 268.025 98.961 265.539 100.201C262.633 101.587 259.553 102.566 256.384 103.11C253.89 103.487 251.369 103.644 248.848 103.581L225.027 103.593ZM245.313 53.0331V94.8525C245.232 96.2207 245.337 97.5935 245.624 98.9331C245.836 99.4294 246.213 99.8353 246.691 100.08C247.646 100.508 248.69 100.699 249.734 100.635C254.112 100.635 257.447 99.1303 259.739 96.1202C262.879 92.096 264.448 85.7981 264.448 77.2266C264.448 70.3452 263.378 64.8521 261.237 60.7475C259.875 57.8586 257.558 55.5368 254.683 54.18C252.806 53.3912 249.682 53.0089 245.313 53.0331Z" fill="url(#paint3_linear_112_742)"/>
<g style="mix-blend-mode:multiply" opacity="0.75">
<g style="mix-blend-mode:multiply" opacity="0.75">
<path d="M104.028 150.876C111.47 152.61 116.69 154.708 119.687 157.169C121.741 158.77 123.394 160.827 124.515 163.178C125.636 165.529 126.194 168.109 126.145 170.713C126.187 173.536 125.566 176.33 124.331 178.87C123.097 181.41 121.283 183.625 119.037 185.337C113.218 189.994 104.77 192.327 93.6906 192.334H53.8302V190.196C57.4522 190.196 59.9098 189.859 61.2028 189.183C62.372 188.627 63.325 187.701 63.9138 186.549C64.4428 185.447 64.6962 182.813 64.6962 178.57V127.734C64.6962 123.491 64.4428 120.824 63.9138 119.722C63.3271 118.556 62.3586 117.626 61.1697 117.088C59.862 116.441 57.4155 116.115 53.8302 116.107V113.969H91.3983C100.376 113.969 106.735 114.77 110.474 116.372C114.049 117.849 117.113 120.339 119.291 123.535C121.383 126.507 122.514 130.05 122.531 133.685C122.532 137.454 121.056 141.074 118.42 143.768C115.709 146.736 110.912 149.106 104.028 150.876ZM82.9899 153.819V178.967L82.9238 181.854C82.8117 182.708 82.8975 183.577 83.1747 184.393C83.4519 185.209 83.9129 185.95 84.5222 186.559C85.1314 187.169 85.8726 187.63 86.6885 187.907C87.5044 188.184 88.373 188.27 89.2274 188.158C92.1958 188.186 95.1255 187.482 97.757 186.108C100.313 184.777 102.4 182.697 103.741 180.146C105.149 177.466 105.865 174.478 105.824 171.451C105.878 167.998 104.998 164.594 103.278 161.599C101.724 158.814 99.2503 156.656 96.2803 155.494C93.3048 154.303 88.8674 153.727 82.9678 153.763L82.9899 153.819ZM82.9899 149.311C88.4559 149.311 92.4967 148.694 95.1122 147.46C97.5723 146.353 99.6503 144.543 101.085 142.258C102.439 139.615 103.145 136.688 103.145 133.718C103.145 130.748 102.439 127.82 101.085 125.177C99.6992 122.899 97.6496 121.099 95.2114 120.019C92.662 118.866 88.5772 118.308 82.9568 118.344L82.9899 149.311Z" fill="black"/>
</g>
<g style="mix-blend-mode:multiply" opacity="0.75">
<path d="M167.714 170.062H140.031L136.725 177.699C135.783 179.672 135.233 181.809 135.105 183.992C135.048 184.969 135.266 185.943 135.736 186.803C136.206 187.662 136.907 188.372 137.761 188.852C138.808 189.469 141.365 189.954 145.475 190.24V192.378H119.39V190.24C122.037 189.899 124.487 188.663 126.333 186.736C128.14 184.833 130.374 180.895 133.033 174.922L161.069 112.371H162.171L190.438 176.652C193.127 182.746 195.353 186.571 197.05 188.157C198.607 189.44 200.544 190.172 202.56 190.24V192.378H164.717V190.24H166.27C169.312 190.24 171.45 189.814 172.684 188.962C173.103 188.662 173.439 188.261 173.662 187.797C173.886 187.333 173.989 186.82 173.963 186.306C173.956 185.579 173.837 184.858 173.61 184.168C173.533 183.826 172.96 182.372 171.88 179.837L167.714 170.062ZM165.741 165.786L154.071 138.754L142.048 165.786H165.741Z" fill="black"/>
</g>
<g style="mix-blend-mode:multiply" opacity="0.75">
<path d="M223.565 156.651V178.614C223.565 182.861 223.826 185.531 224.347 186.626C224.934 187.792 225.903 188.721 227.091 189.26C228.407 189.906 230.853 190.233 234.431 190.241V192.379H194.317V190.241C197.946 190.241 200.404 189.903 201.69 189.227C202.859 188.671 203.812 187.746 204.401 186.593C204.93 185.491 205.183 182.857 205.183 178.614V127.734C205.183 123.491 204.93 120.824 204.401 119.722C203.814 118.556 202.846 117.626 201.657 117.088C200.349 116.441 197.902 116.115 194.317 116.107V113.969H230.761C240.239 113.969 247.174 114.627 251.567 115.942C255.83 117.16 259.596 119.699 262.323 123.193C265.093 126.725 266.561 131.104 266.478 135.591C266.544 138.289 266.02 140.969 264.942 143.444C263.865 145.918 262.26 148.128 260.24 149.917C257.002 152.586 253.163 154.428 249.055 155.284L267.899 181.81C269.421 184.13 271.187 186.28 273.167 188.224C274.759 189.429 276.682 190.118 278.677 190.196V192.334H253.992L228.733 156.607L223.565 156.651ZM223.565 118.212V152.551H226.871C232.227 152.551 236.235 152.059 238.894 151.075C241.547 150.101 243.768 148.219 245.165 145.763C246.813 142.685 247.604 139.222 247.457 135.734C247.457 129.761 246.057 125.353 243.258 122.51C240.459 119.667 235.963 118.241 229.769 118.234L223.565 118.212Z" fill="black"/>
</g>
</g>
<path d="M102.926 149.775C110.368 151.509 115.588 153.606 118.586 156.068C120.64 157.669 122.293 159.726 123.414 162.077C124.535 164.428 125.093 167.008 125.044 169.611C125.085 172.435 124.464 175.229 123.23 177.769C121.995 180.309 120.182 182.524 117.936 184.235C112.117 188.893 103.668 191.226 92.589 191.233H52.7287V189.095C56.3507 189.095 58.8082 188.757 60.1013 188.081C61.2705 187.526 62.2235 186.6 62.8123 185.448C63.3413 184.346 63.5947 181.712 63.5947 177.469V126.632C63.5947 122.39 63.3413 119.723 62.8123 118.621C62.2256 117.455 61.2571 116.525 60.0682 115.987C58.7605 115.34 56.314 115.013 52.7287 115.006V112.868H90.2968C99.2747 112.868 105.633 113.669 109.373 115.271C112.947 116.748 116.012 119.238 118.189 122.434C120.281 125.406 121.412 128.948 121.429 132.583C121.43 136.353 119.954 139.972 117.319 142.667C114.608 145.635 109.81 148.004 102.926 149.775ZM81.8884 152.717V177.866L81.8223 180.753C81.7102 181.607 81.796 182.476 82.0732 183.292C82.3504 184.108 82.8114 184.849 83.4207 185.458C84.0299 186.067 84.7711 186.528 85.587 186.806C86.4029 187.083 87.2715 187.169 88.1259 187.057C91.0943 187.085 94.0239 186.381 96.6555 185.007C99.2111 183.676 101.299 181.595 102.64 179.045C104.047 176.365 104.763 173.376 104.722 170.35C104.776 166.897 103.897 163.493 102.177 160.498C100.622 157.713 98.1488 155.555 95.1788 154.392C92.2033 153.202 87.7658 152.626 81.8663 152.662L81.8884 152.717ZM81.8884 148.21C87.3544 148.21 91.3952 147.593 94.0107 146.359C96.4708 145.251 98.5488 143.442 99.9837 141.157C101.338 138.514 102.044 135.586 102.044 132.616C102.044 129.646 101.338 126.719 99.9837 124.076C98.5977 121.798 96.5481 119.998 94.1098 118.918C91.5605 117.765 87.4757 117.206 81.8553 117.243L81.8884 148.21Z" fill="url(#paint4_linear_112_742)"/>
<path d="M166.612 168.961H138.929L135.623 176.598C134.681 178.571 134.131 180.708 134.003 182.891C133.945 183.868 134.164 184.842 134.633 185.702C135.103 186.561 135.805 187.271 136.658 187.751C137.705 188.368 140.262 188.853 144.373 189.139V191.277H118.288V189.139C120.934 188.798 123.384 187.561 125.23 185.635C127.038 183.732 129.271 179.794 131.931 173.821L159.966 111.27H161.068L189.335 175.551C192.024 181.645 194.25 185.469 195.948 187.056C197.505 188.338 199.442 189.071 201.458 189.139V191.277H163.614V189.139H165.168C168.21 189.139 170.347 188.713 171.582 187.861C172 187.561 172.337 187.16 172.56 186.696C172.783 186.232 172.886 185.719 172.86 185.205C172.853 184.478 172.734 183.757 172.507 183.067C172.43 182.725 171.857 181.271 170.777 178.736L166.612 168.961ZM164.639 164.685L152.968 137.652L140.945 164.685H164.639Z" fill="url(#paint5_linear_112_742)"/>
<path d="M222.462 155.55V177.513C222.462 181.759 222.723 184.43 223.245 185.525C223.832 186.691 224.8 187.62 225.989 188.159C227.304 188.805 229.751 189.132 233.328 189.139V191.277H193.215V189.139C196.844 189.139 199.302 188.801 200.587 188.126C201.756 187.57 202.709 186.644 203.298 185.492C203.827 184.39 204.081 181.756 204.081 177.513V126.632C204.081 122.39 203.827 119.723 203.298 118.621C202.712 117.455 201.743 116.525 200.554 115.987C199.246 115.34 196.8 115.013 193.215 115.006V112.868H229.659C239.136 112.868 246.072 113.526 250.465 114.841C254.727 116.058 258.494 118.597 261.221 122.092C263.991 125.624 265.458 130.002 265.375 134.49C265.441 137.188 264.917 139.868 263.84 142.342C262.763 144.817 261.158 147.026 259.138 148.816C255.899 151.485 252.061 153.326 247.952 154.183L266.797 180.709C268.319 183.029 270.085 185.179 272.065 187.123C273.657 188.328 275.58 189.017 277.575 189.095V191.233H252.889L227.631 155.506L222.462 155.55ZM222.462 117.111V151.45H225.769C231.124 151.45 235.132 150.958 237.792 149.973C240.444 149 242.666 147.118 244.062 144.662C245.71 141.584 246.502 138.121 246.354 134.633C246.354 128.66 244.955 124.252 242.156 121.409C239.357 118.566 234.86 117.14 228.667 117.133L222.462 117.111Z" fill="url(#paint6_linear_112_742)"/>
<g style="mix-blend-mode:multiply" opacity="0.75">
<g style="mix-blend-mode:multiply" opacity="0.75">
<path d="M97.4157 201.989V217.682H96.2035C95.0316 213.83 92.7276 210.42 89.5913 207.896C86.8479 205.75 83.4644 204.586 79.9816 204.589C76.9623 204.484 74.0081 205.483 71.6724 207.4C69.3484 209.47 67.7108 212.199 66.9777 215.224C66.0604 218.582 65.5971 222.047 65.6002 225.528C65.5362 229.326 66.0452 233.112 67.11 236.758C67.8675 239.611 69.5884 242.114 71.9809 243.844C74.3568 245.392 77.1465 246.184 79.9816 246.114C81.0924 246.113 82.2002 245.998 83.2877 245.772C84.4653 245.528 85.6222 245.192 86.7481 244.769V235.512C86.8276 234.368 86.7045 233.219 86.3844 232.118C86.0487 231.506 85.5279 231.016 84.8967 230.719C84.0508 230.278 83.106 230.062 82.1526 230.09H81.0506V228.878H102.683V230.09C101.505 230.102 100.339 230.333 99.2451 230.774C98.5674 231.145 98.041 231.741 97.7573 232.46C97.4887 233.454 97.3881 234.485 97.4598 235.512V244.769C94.6134 246.038 91.6394 246.999 88.5885 247.635C85.4387 248.29 82.2291 248.615 79.0119 248.604C75.4294 248.714 71.8595 248.13 68.4985 246.885C65.7779 245.801 63.2594 244.266 61.0488 242.345C58.9955 240.574 57.2944 238.432 56.0346 236.03C54.4738 232.878 53.688 229.398 53.7424 225.881C53.6802 222.718 54.2748 219.576 55.4889 216.655C56.7029 213.734 58.5098 211.097 60.7953 208.909C63.1392 206.621 65.9204 204.829 68.9727 203.639C72.025 202.45 75.2858 201.889 78.56 201.989C80.5635 201.97 82.564 202.147 84.533 202.518C86.1269 202.891 87.6892 203.389 89.2056 204.005C90.4335 204.55 91.7153 204.963 93.0296 205.24C93.6624 205.234 94.2707 204.994 94.7378 204.567C95.4208 203.85 95.9166 202.976 96.1814 202.022L97.4157 201.989Z" fill="black"/>
</g>
<g style="mix-blend-mode:multiply" opacity="0.75">
<path d="M127.953 234.84H112.227L110.354 239.171C109.824 240.296 109.514 241.511 109.439 242.752C109.408 243.307 109.534 243.858 109.801 244.345C110.067 244.832 110.465 245.235 110.949 245.507C112.359 246.032 113.852 246.3 115.357 246.301V247.513H100.512V246.301C102.012 246.109 103.401 245.409 104.447 244.317C106.041 242.276 107.326 240.011 108.26 237.595L124.173 202.087H124.801L140.847 238.587C142.379 242.047 143.635 244.218 144.627 245.122C145.517 245.854 146.626 246.269 147.778 246.301V247.513H126.245V246.301H127.126C128.387 246.406 129.651 246.154 130.774 245.573C131.011 245.402 131.2 245.174 131.325 244.91C131.45 244.646 131.507 244.355 131.49 244.064C131.486 243.653 131.423 243.245 131.303 242.851C131.303 242.653 130.928 241.838 130.311 240.394L127.953 234.84ZM126.851 232.415L120.239 217.086L113.373 232.426L126.851 232.415Z" fill="black"/>
</g>
<g style="mix-blend-mode:multiply" opacity="0.75">
<path d="M177.202 232.349L189.324 203.003H207.398V204.226H205.954C204.861 204.171 203.774 204.407 202.802 204.909C202.211 205.269 201.751 205.81 201.491 206.452C201.156 207.791 201.034 209.174 201.127 210.551V239.898C201.036 241.33 201.159 242.768 201.491 244.163C201.807 244.81 202.325 245.337 202.967 245.662C203.892 246.126 204.92 246.346 205.954 246.301H207.398V247.513H184.156V246.301H185.577C186.671 246.354 187.759 246.114 188.729 245.607C189.332 245.244 189.794 244.689 190.041 244.031C190.376 242.681 190.498 241.286 190.404 239.898V206.915L173.345 247.513H172.552L155.228 207.212V238.554C155.182 239.9 155.234 241.248 155.382 242.587C155.66 243.675 156.321 244.626 157.244 245.265C158.596 246.057 160.157 246.418 161.719 246.301V247.513H146.511V246.301H147.007C147.947 246.327 148.884 246.166 149.762 245.827C150.521 245.558 151.192 245.085 151.701 244.461C152.202 243.743 152.548 242.929 152.715 242.069C152.715 241.827 152.781 240.703 152.781 238.763V210.551C152.872 209.138 152.75 207.719 152.417 206.342C152.106 205.697 151.586 205.176 150.941 204.865C150.018 204.394 148.989 204.174 147.954 204.226H146.544V203.003H164.727L177.202 232.349Z" fill="black"/>
</g>
<g style="mix-blend-mode:multiply" opacity="0.75">
<path d="M223.564 205.57V223.688H224.457C227.278 223.688 229.32 222.799 230.584 221.021C232.054 218.66 232.892 215.963 233.02 213.185H234.265V236.482H233.02C232.857 234.319 232.297 232.204 231.367 230.245C230.757 228.861 229.727 227.705 228.424 226.939C226.887 226.298 225.226 226.012 223.564 226.101V238.642C223.486 240.148 223.589 241.657 223.873 243.138C224.101 243.704 224.512 244.178 225.041 244.483C225.897 244.897 226.847 245.079 227.796 245.012H230.463C234.031 245.346 237.595 244.33 240.451 242.166C243.307 240.001 245.248 236.845 245.891 233.319H247.115L245.087 247.513H206.593V246.301H208.07C209.153 246.352 210.229 246.112 211.188 245.607C211.802 245.257 212.268 244.697 212.5 244.031C212.835 242.681 212.958 241.286 212.864 239.898V210.617C212.908 209.381 212.853 208.143 212.698 206.915C212.517 206.198 212.087 205.57 211.486 205.14C210.476 204.475 209.277 204.154 208.07 204.226H206.593V203.003H243.853V216.172H242.607C242.265 213.684 241.348 211.311 239.929 209.24C238.644 207.755 236.95 206.681 235.058 206.154C232.793 205.664 230.475 205.468 228.16 205.57H223.564Z" fill="black"/>
</g>
<g style="mix-blend-mode:multiply" opacity="0.75">
<path d="M278.302 201.989L278.654 216.822H277.31C276.826 213.385 275.176 210.218 272.637 207.852C270.491 205.721 267.605 204.501 264.582 204.446C262.65 204.344 260.752 204.987 259.281 206.243C258.678 206.747 258.192 207.375 257.856 208.084C257.519 208.794 257.34 209.568 257.33 210.353C257.31 211.277 257.546 212.189 258.014 212.987C258.827 214.19 259.863 215.226 261.066 216.04C263.364 217.452 265.741 218.733 268.185 219.875C273.401 222.446 276.913 224.863 278.721 227.126C280.496 229.34 281.45 232.101 281.421 234.939C281.422 236.763 281.029 238.565 280.268 240.222C279.507 241.879 278.397 243.351 277.012 244.538C274.003 247.262 270.049 248.705 265.992 248.56C264.655 248.565 263.321 248.425 262.014 248.142C260.412 247.733 258.845 247.195 257.33 246.533C256.513 246.149 255.631 245.925 254.729 245.872C254.074 245.904 253.444 246.134 252.922 246.533C252.233 247.042 251.699 247.732 251.379 248.527H250.167V231.721H251.379C252.349 236.445 254.204 240.053 256.945 242.543C259.323 244.87 262.5 246.203 265.827 246.268C267.966 246.376 270.065 245.658 271.69 244.263C272.373 243.691 272.923 242.979 273.304 242.174C273.684 241.369 273.886 240.491 273.894 239.601C273.883 238.528 273.594 237.477 273.056 236.548C272.398 235.459 271.533 234.508 270.51 233.749C268.609 232.408 266.587 231.246 264.471 230.278C261.403 228.874 258.479 227.173 255.743 225.197C254.077 223.925 252.686 222.328 251.655 220.503C250.699 218.753 250.206 216.788 250.222 214.794C250.198 213.094 250.534 211.407 251.208 209.846C251.882 208.285 252.88 206.884 254.134 205.736C255.444 204.489 256.989 203.516 258.678 202.873C260.368 202.229 262.169 201.929 263.975 201.989C265.392 201.985 266.803 202.163 268.174 202.518C269.47 202.883 270.728 203.37 271.932 203.972C272.889 204.532 273.944 204.906 275.04 205.074C275.289 205.086 275.537 205.045 275.769 204.954C276 204.863 276.21 204.724 276.384 204.545C276.881 203.787 277.194 202.923 277.299 202.022L278.302 201.989Z" fill="black"/>
</g>
</g>
<path d="M96.3134 200.886V216.579H95.1012C93.9292 212.727 91.6253 209.317 88.489 206.793C85.7456 204.647 82.3621 203.483 78.8793 203.487C75.8599 203.382 72.9058 204.381 70.57 206.297C68.2461 208.367 66.6084 211.097 65.8754 214.121C64.9581 217.479 64.4948 220.945 64.4979 224.425C64.4339 228.223 64.9429 232.009 66.0076 235.655C66.7652 238.508 68.4861 241.012 70.8786 242.741C73.2545 244.29 76.0442 245.081 78.8793 245.011C79.9901 245.01 81.0978 244.896 82.1854 244.67C83.363 244.425 84.5199 244.09 85.6458 243.667V234.41C85.7253 233.266 85.6022 232.117 85.2821 231.016C84.9464 230.404 84.4256 229.914 83.7944 229.616C82.9484 229.175 82.0037 228.959 81.0503 228.988H79.9483V227.776H101.581V228.988C100.402 228.999 99.2362 229.231 98.1428 229.671C97.4651 230.042 96.9387 230.639 96.655 231.357C96.3864 232.351 96.2858 233.383 96.3575 234.41V243.667C93.5111 244.936 90.5371 245.896 87.4862 246.532C84.3364 247.188 81.1268 247.513 77.9095 247.502C74.3271 247.612 70.7572 247.028 67.3962 245.783C64.6756 244.698 62.1571 243.163 59.9465 241.242C57.8932 239.471 56.1921 237.329 54.9323 234.928C53.3715 231.775 52.5857 228.295 52.6401 224.778C52.5778 221.615 53.1725 218.474 54.3865 215.553C55.6005 212.632 57.4075 209.994 59.693 207.807C62.0368 205.518 64.8181 203.726 67.8704 202.537C70.9227 201.348 74.1835 200.786 77.4577 200.886C79.4612 200.868 81.4616 201.045 83.4307 201.415C85.0246 201.789 86.5869 202.286 88.1033 202.903C89.3312 203.447 90.6129 203.861 91.9273 204.137C92.5601 204.131 93.1684 203.892 93.6355 203.465C94.3185 202.748 94.8143 201.873 95.0791 200.919L96.3134 200.886Z" fill="url(#paint7_linear_112_742)"/>
<path d="M126.851 233.738H111.126L109.252 238.069C108.722 239.194 108.412 240.41 108.337 241.651C108.307 242.205 108.432 242.757 108.699 243.244C108.966 243.731 109.364 244.133 109.847 244.406C111.258 244.93 112.75 245.199 114.255 245.199V246.412H99.411V245.199C100.911 245.007 102.299 244.307 103.345 243.216C104.94 241.174 106.225 238.909 107.158 236.493L123.072 200.986H123.7L139.745 237.485C141.277 240.945 142.533 243.116 143.525 244.02C144.416 244.752 145.525 245.167 146.677 245.199V246.412H125.143V245.199H126.025C127.285 245.304 128.549 245.052 129.673 244.472C129.909 244.301 130.099 244.072 130.224 243.809C130.349 243.545 130.406 243.254 130.389 242.962C130.384 242.551 130.321 242.143 130.202 241.75C130.202 241.552 129.827 240.736 129.21 239.292L126.851 233.738ZM125.749 231.314L119.137 215.985L112.272 231.325L125.749 231.314Z" fill="url(#paint8_linear_112_742)"/>
<path d="M176.1 231.248L188.223 201.901H206.296V203.124H204.852C203.76 203.069 202.672 203.305 201.701 203.807C201.109 204.168 200.65 204.709 200.389 205.35C200.055 206.689 199.932 208.073 200.025 209.45V238.797C199.934 240.228 200.057 241.666 200.389 243.062C200.705 243.709 201.224 244.235 201.866 244.56C202.791 245.024 203.819 245.244 204.852 245.199H206.296V246.412H183.054V245.199H184.476C185.569 245.252 186.657 245.013 187.628 244.505C188.23 244.143 188.692 243.587 188.939 242.929C189.274 241.579 189.397 240.185 189.303 238.797V205.813L172.243 246.412H171.45L154.126 206.111V237.452C154.081 238.799 154.132 240.147 154.28 241.486C154.558 242.573 155.22 243.524 156.143 244.164C157.494 244.955 159.055 245.316 160.617 245.199V246.412H145.409V245.199H145.905C146.846 245.225 147.782 245.064 148.66 244.726C149.419 244.456 150.09 243.983 150.6 243.359C151.101 242.641 151.446 241.827 151.613 240.968C151.613 240.725 151.68 239.601 151.68 237.662V209.45C151.771 208.036 151.648 206.617 151.316 205.24C151.004 204.595 150.484 204.075 149.839 203.763C148.917 203.293 147.887 203.072 146.853 203.124H145.442V201.901H163.625L176.1 231.248Z" fill="url(#paint9_linear_112_742)"/>
<path d="M222.463 204.469V222.586H223.355C226.177 222.586 228.219 221.697 229.483 219.919C230.952 217.559 231.791 214.861 231.918 212.084H233.163V235.38H231.918C231.755 233.217 231.195 231.103 230.265 229.143C229.655 227.76 228.626 226.603 227.323 225.837C225.786 225.197 224.125 224.91 222.463 224.999V237.54C222.384 239.046 222.488 240.556 222.771 242.037C223 242.603 223.411 243.076 223.939 243.381C224.796 243.795 225.746 243.977 226.695 243.91H229.361C232.93 244.244 236.493 243.228 239.349 241.064C242.205 238.899 244.147 235.743 244.79 232.218H246.013L243.985 246.412H205.492V245.199H206.968C208.051 245.25 209.128 245.01 210.087 244.505C210.7 244.156 211.166 243.596 211.398 242.929C211.733 241.579 211.856 240.185 211.762 238.797V209.516C211.806 208.279 211.751 207.041 211.597 205.813C211.416 205.097 210.986 204.468 210.385 204.039C209.374 203.373 208.176 203.053 206.968 203.124H205.492V201.901H242.751V215.07H241.506C241.164 212.583 240.247 210.209 238.828 208.138C237.543 206.653 235.849 205.58 233.957 205.053C231.692 204.562 229.373 204.366 227.058 204.469H222.463Z" fill="url(#paint10_linear_112_742)"/>
<path d="M277.2 200.886L277.553 215.719H276.209C275.724 212.282 274.075 209.116 271.536 206.749C269.39 204.618 266.504 203.399 263.48 203.344C261.548 203.241 259.651 203.884 258.179 205.14C257.577 205.644 257.091 206.272 256.754 206.982C256.417 207.691 256.238 208.465 256.229 209.251C256.208 210.175 256.445 211.087 256.912 211.884C257.726 213.087 258.762 214.123 259.965 214.937C262.263 216.35 264.64 217.63 267.084 218.772C272.3 221.343 275.812 223.761 277.619 226.023C279.394 228.238 280.349 230.999 280.319 233.837C280.321 235.66 279.928 237.462 279.167 239.119C278.406 240.776 277.295 242.249 275.911 243.435C272.901 246.16 268.948 247.603 264.891 247.458C263.553 247.462 262.219 247.322 260.912 247.039C259.31 246.631 257.744 246.092 256.229 245.43C255.412 245.047 254.529 244.822 253.628 244.769C252.972 244.801 252.342 245.032 251.821 245.43C251.131 245.939 250.597 246.63 250.278 247.425H249.066V230.619H250.278C251.248 235.343 253.103 238.95 255.843 241.441C258.222 243.768 261.398 245.1 264.725 245.166C266.865 245.273 268.963 244.555 270.588 243.16C271.271 242.589 271.822 241.876 272.202 241.071C272.583 240.266 272.784 239.389 272.792 238.498C272.781 237.426 272.493 236.374 271.955 235.446C271.296 234.356 270.432 233.405 269.409 232.647C267.508 231.305 265.486 230.143 263.37 229.175C260.301 227.772 257.378 226.07 254.642 224.095C252.976 222.822 251.585 221.225 250.553 219.4C249.597 217.65 249.104 215.686 249.121 213.692C249.096 211.991 249.432 210.305 250.107 208.743C250.781 207.182 251.778 205.781 253.033 204.633C254.343 203.387 255.887 202.413 257.577 201.77C259.266 201.127 261.067 200.826 262.874 200.886C264.29 200.883 265.701 201.06 267.073 201.415C268.369 201.78 269.627 202.267 270.831 202.87C271.788 203.429 272.842 203.803 273.938 203.972C274.187 203.984 274.436 203.943 274.667 203.851C274.899 203.76 275.109 203.621 275.283 203.443C275.78 202.684 276.093 201.82 276.198 200.919L277.2 200.886Z" fill="url(#paint11_linear_112_742)"/>
<path d="M47.6606 42.3374C46.9541 44.6414 46.1487 46.9219 45.3564 49.0593C44.5642 51.1967 43.8377 53.3572 43.0609 55.1972C42.402 56.8189 41.6423 58.3978 40.7864 59.9247C40.2869 60.9497 39.6377 61.8947 38.8601 62.7286C36.5574 64.8987 35.8414 58.9365 38.3954 49.4959C38.6997 48.2991 39.037 47.1138 39.3852 45.9287C39.7335 44.7435 40.2018 43.6373 40.6371 42.5306C41.5183 40.3394 42.4536 38.2151 43.3852 36.3443C43.851 35.4034 44.3159 34.5285 44.7688 33.7197C45.1957 32.9864 45.6663 32.2794 46.1779 31.6025C46.8385 30.6046 47.6598 29.723 48.6083 28.9934C49.9886 28.0771 50.513 29.1319 50.2897 31.5533C50.1204 33.0879 49.8251 34.606 49.4066 36.0921C48.917 37.8923 48.3782 40.0335 47.6606 42.3374Z" fill="url(#paint12_linear_112_742)"/>
<path d="M55.425 47.9088C53.5313 49.2584 51.6691 50.7076 49.9281 52.1696C48.187 53.6317 46.7632 55.2527 45.4518 56.7211C44.2749 58.0012 43.1799 59.3543 42.1734 60.7724C41.5105 61.6955 41.0276 62.7353 40.7502 63.8373C40.1966 66.9702 45.2634 64.2129 52.5431 58.645L57.7866 54.3805C59.4826 52.9839 61.0352 51.5962 62.3885 50.2717C63.0596 49.6094 63.6752 48.9793 64.2355 48.3594C64.7958 47.7395 65.3547 47.2077 65.8035 46.6743C66.5513 45.8895 67.1576 44.9812 67.5958 43.9897C68.0799 42.5641 66.9717 42.228 64.7472 42.8452C63.3319 43.2951 61.9588 43.8684 60.6438 44.5587C58.8376 45.5681 57.0947 46.6869 55.425 47.9088Z" fill="url(#paint13_linear_112_742)"/>
<path d="M63.3773 25.9945C62.3233 27.2022 61.2592 28.3547 60.3376 29.5533C59.416 30.752 58.5279 31.9291 57.7401 33.0196C56.1085 35.2768 54.6995 37.383 53.5826 39.1188C51.4782 42.7797 50.5373 45.2787 51.1153 45.695C51.6932 46.1114 53.6918 44.3777 56.503 41.3665C57.9796 39.9005 59.6594 38.1069 61.4645 36.0507C62.3614 35.028 63.2922 33.9507 64.2353 32.7854C65.1784 31.6201 66.2625 30.6113 67.2949 29.3701C69.3798 27.0205 71.3095 24.7346 73.0163 22.6108C74.7231 20.487 76.3811 18.6821 77.673 17.037C80.2345 13.7686 81.5803 11.4631 81.0699 10.9485C80.5596 10.4339 78.3127 11.8113 75.0441 14.463C73.415 15.8055 71.517 17.4415 69.4607 19.3507C67.4044 21.26 65.4961 23.5902 63.3773 25.9945Z" fill="url(#paint14_linear_112_742)"/>
<path d="M32.2392 66.9728C31.7305 69.3128 31.3856 71.7545 30.9001 74.0177C30.4146 76.2809 29.898 78.4114 29.3292 80.3427C28.3784 84.2522 27.342 87.2457 26.2882 88.4424C25.2344 89.6391 24.4087 88.8333 23.9476 86.4899C23.6757 84.9636 23.5401 83.4162 23.5424 81.8659C23.5563 80.9292 23.5717 79.8935 23.5879 78.8026C23.6041 77.7117 23.7969 76.6014 23.9588 75.3473C24.5244 70.655 25.6209 66.042 27.2271 61.597C27.843 59.852 28.5677 58.1474 29.397 56.4932C29.7067 55.8736 30.0504 55.2716 30.4268 54.69C30.7238 54.2898 31.0657 53.9251 31.4459 53.603C32.7294 52.5199 33.376 53.5104 33.4173 55.9247C33.4124 59.6385 33.0176 63.3415 32.2392 66.9728Z" fill="url(#paint15_linear_112_742)"/>
<path d="M40.6589 71.485C38.9463 73.0257 37.352 74.6931 35.8896 76.473C34.4202 78.1926 33.0831 79.9141 31.9241 81.5171C29.7923 84.7918 28.4484 87.7146 28.3482 89.2671C28.2479 90.8197 29.4278 90.7821 31.3975 89.5108C32.6265 88.6617 33.7866 87.7171 34.8671 86.6858C35.5263 86.0894 36.2084 85.4272 36.9245 84.7104C37.6405 83.9936 38.467 83.2565 39.2617 82.4417C42.5394 79.1839 45.4006 75.7657 47.8899 72.904C48.9432 71.6383 49.9129 70.3052 50.7928 68.9133C51.1171 68.3926 51.4085 67.8521 51.6654 67.2951C51.8805 66.8928 52.046 66.466 52.1583 66.0239C52.4884 64.574 51.3342 64.3695 49.1936 65.2745C46.0731 66.9367 43.2003 69.0271 40.6589 71.485Z" fill="url(#paint16_linear_112_742)"/>
<path d="M20.4144 93.6124C20.3782 96.0476 20.2432 98.4593 20.0437 100.76C19.8442 103.06 19.8108 105.308 19.5939 107.3C19.3769 109.292 19.0423 111.039 18.7892 112.501C18.6375 113.646 18.297 114.759 17.7814 115.793C16.9677 117.147 16.0077 116.483 15.1485 114.221C14.606 112.759 14.2221 111.242 14.0034 109.697C13.7443 107.852 13.5563 105.667 13.4609 103.186C13.4792 101.952 13.3986 100.705 13.4061 99.4599C13.4135 98.2145 13.5636 97.0154 13.6586 95.8155C13.8926 93.4163 14.2133 91.1176 14.586 89.029C14.9098 87.1974 15.4052 85.4003 16.0655 83.6615C16.4341 82.5086 16.9862 81.4227 17.7004 80.4455C18.8215 79.1726 19.5687 80.0654 20.0068 82.4746C20.4449 84.8838 20.4106 88.6747 20.4144 93.6124Z" fill="url(#paint17_linear_112_742)"/>
<path d="M29.4149 96.8322C27.9773 98.6404 26.6045 100.538 25.3419 102.437C24.0793 104.336 23.1908 106.273 22.3377 108.057C21.5519 109.609 20.901 111.225 20.3923 112.889C20.0548 113.974 19.9038 115.108 19.9456 116.244C20.1207 117.811 21.2705 117.575 22.9801 116.002C24.0307 114.975 25.0186 113.885 25.9383 112.74C27.0606 111.379 28.3744 109.745 29.6803 107.902C30.3442 106.986 30.9753 106.047 31.5843 105.12C32.1932 104.192 32.8898 103.298 33.4874 102.392C34.7155 100.592 35.7445 98.844 36.7163 97.2272C37.6882 95.6105 38.503 94.1788 39.0618 92.9196C39.5563 91.9751 39.8776 90.9496 40.0105 89.8918C40.0326 88.4042 38.931 88.3658 36.9954 89.5714C34.0789 91.549 31.5163 94.0036 29.4149 96.8322Z" fill="url(#paint18_linear_112_742)"/>
<path d="M12.7441 121.78C14.1106 131.433 14.8813 141.132 13.7903 144.092C13.2284 145.56 12.1668 145.06 10.9197 142.947C10.1539 141.598 9.54646 140.165 9.10948 138.677C8.44286 136.59 7.88575 134.471 7.44041 132.326C7.17237 131.115 6.97346 129.891 6.84464 128.658C6.70854 127.432 6.58347 126.207 6.49129 124.993C6.39911 123.78 6.32798 122.632 6.27824 121.53C6.28675 120.957 6.2285 120.427 6.23734 119.832L6.26141 118.212C6.51144 113.994 7.09061 110.619 7.92763 109.177C8.37904 108.467 8.84429 108.309 9.26978 108.602C9.87827 109.22 10.3151 109.986 10.5373 110.825C11.6517 114.39 12.3913 118.061 12.7441 121.78Z" fill="url(#paint19_linear_112_742)"/>
<path d="M22.1413 123.529C17.6135 131.552 15.0566 141.191 16.0036 144.214C16.455 145.73 17.5409 145.339 18.9465 143.464C19.6103 142.548 20.4888 141.282 21.3933 139.753C22.2977 138.223 23.2507 136.397 24.2065 134.372C24.6625 133.354 25.2067 132.337 25.7066 131.33C26.2065 130.324 26.6732 129.328 27.1176 128.342C27.5621 127.357 27.9622 126.393 28.3399 125.451L28.8894 124.07L29.46 122.756C30.8998 119.317 31.6802 116.496 31.4818 115.016C31.4046 114.277 31.1014 113.908 30.5714 113.978C29.7648 114.148 29.0308 114.565 28.4706 115.17C25.9768 117.643 23.8459 120.458 22.1413 123.529Z" fill="url(#paint20_linear_112_742)"/>
<path d="M9.86406 150.889C10.5571 153.203 11.36 155.541 11.966 157.776L13.5803 164.104C14.0302 165.805 14.3726 167.533 14.6056 169.277C14.6879 169.933 14.7333 170.592 14.7416 171.252C14.7818 171.733 14.7746 172.216 14.7202 172.696C14.4216 174.245 13.2909 173.942 11.6981 172.1C9.50917 169.058 7.73842 165.736 6.43329 162.223C2.97796 152.958 1.76942 142.316 3.12751 139.184C3.78986 137.628 4.80596 138.228 5.9312 140.382C7.57302 143.752 8.88992 147.27 9.86406 150.889Z" fill="url(#paint21_linear_112_742)"/>
<path d="M19.4178 151.02C18.6472 153.174 18.0109 155.373 17.5125 157.605C16.9711 159.67 16.6079 161.777 16.4269 163.904C16.2621 165.632 16.2032 167.368 16.2505 169.104C16.2744 169.754 16.3347 170.402 16.431 171.046C16.5224 171.509 16.6712 171.96 16.874 172.386C17.5913 173.808 18.5924 173.194 19.6368 171.149C21.199 168.002 22.4123 164.694 23.2551 161.283C25.941 152.605 27.9222 143.883 27.2372 141.03C26.8725 139.614 25.766 139.906 24.2518 141.68C22.7375 143.454 21.1355 146.681 19.4178 151.02Z" fill="url(#paint22_linear_112_742)"/>
<path d="M12.0102 180.029C12.5228 181.138 13.0802 182.194 13.6593 183.271C14.2385 184.349 14.7296 185.414 15.2432 186.458C16.248 188.556 17.0774 190.596 17.9541 192.417C18.6857 194.014 19.3202 195.654 19.854 197.328C20.0539 197.958 20.2137 198.601 20.3324 199.252C20.4537 199.718 20.517 200.196 20.5206 200.677C20.497 202.264 19.3966 202.148 17.4463 200.631C14.7511 198.02 12.4256 195.052 10.5346 191.811C9.33192 189.677 8.19697 187.433 7.17172 185.225C6.68122 184.115 6.15765 183.006 5.77734 181.898C5.39703 180.79 5.04879 179.749 4.7221 178.741C4.16128 176.948 3.70629 175.123 3.35948 173.276C3.12664 172.072 3.10769 170.837 3.30348 169.627C4.10107 166.388 7.57505 171.432 12.0102 180.029Z" fill="url(#paint23_linear_112_742)"/>
<path d="M21.4339 178.537C21.2041 179.67 21.0435 180.816 20.9531 181.969C20.8375 183.069 20.7537 184.258 20.693 185.382C20.5279 187.51 20.5367 189.648 20.7192 191.775C20.8559 193.504 21.0991 195.222 21.4473 196.921C21.5806 197.559 21.7553 198.188 21.9704 198.803C22.1411 199.252 22.3681 199.678 22.646 200.069C23.586 201.34 24.4681 200.57 25.151 198.376C26.1338 195.008 26.7543 191.544 27.0018 188.044C27.322 185.778 27.5648 183.533 27.7061 181.441C27.7996 180.34 27.8035 179.337 27.8957 178.325C27.9879 177.312 28.0465 176.332 28.0823 175.407C28.1681 173.79 28.1406 172.169 28.0001 170.556C27.9735 169.506 27.7845 168.466 27.4397 167.473C26.2449 164.81 23.1011 169.436 21.4339 178.537Z" fill="url(#paint24_linear_112_742)"/>
<path d="M19.1712 208.438C25.1292 216.164 30.6312 224.17 31.1802 227.276C31.4214 228.844 30.2628 228.937 28.1423 227.748C26.8033 226.966 25.5597 226.03 24.4364 224.96C22.8092 223.481 21.2615 221.916 19.7999 220.273C13.3647 212.76 8.59236 203.123 8.80807 199.731C8.88821 198.046 10.0531 198.273 11.8584 199.909C12.3151 200.323 12.7926 200.826 13.3352 201.397C13.8778 201.967 14.4854 202.615 15.1138 203.341C16.3711 204.77 17.7341 206.499 19.1712 208.438Z" fill="url(#paint25_linear_112_742)"/>
<path d="M28.1885 205.299C28.2171 214.502 30.8181 224.152 33.1556 226.313C34.2962 227.433 35.0267 226.485 35.3252 224.197C35.4518 223.096 35.563 221.544 35.5891 219.792C35.6151 218.04 35.5247 215.966 35.3484 213.737C34.8878 204.682 33.7631 195.815 32.1681 193.378C30.5731 190.94 28.2601 196.031 28.1885 205.299Z" fill="url(#paint26_linear_112_742)"/>
<path d="M31.1627 235.145C34.8733 238.353 38.1827 241.862 41.0502 244.705C42.2685 245.968 43.4152 247.299 44.4848 248.69C45.2553 249.541 45.8779 250.515 46.3266 251.572C46.8334 253.068 45.7049 253.359 43.4242 252.565C41.1436 251.771 37.8121 249.748 33.9011 246.67L32.4307 245.491L31.1268 244.237C30.2245 243.397 29.3447 242.525 28.498 241.652C26.8367 240.028 25.304 238.277 23.9137 236.415C21.3855 232.994 19.5997 230.047 19.4488 228.336C19.2979 226.626 20.4213 226.675 22.4849 227.985C25.6029 230.084 28.5092 232.483 31.1627 235.145Z" fill="url(#paint27_linear_112_742)"/>
<path d="M39.4972 230.474C40.3056 234.823 41.6185 239.063 43.4095 243.108C44.109 244.711 44.9143 246.266 45.8202 247.762C46.4346 248.714 47.2001 249.559 48.0865 250.264C49.396 251.144 49.9625 250.105 49.8647 247.789C49.5488 244.304 48.9402 240.851 48.0452 237.468L47.6064 235.841L47.2231 234.193C46.964 233.087 46.6931 232.036 46.3998 231.007C45.8243 228.937 45.1695 227.021 44.6561 225.228C44.0047 222.613 42.8756 220.141 41.3257 217.937C40.3051 216.897 39.4993 217.723 39.0911 219.976C38.6829 222.229 38.8164 225.857 39.4972 230.474Z" fill="url(#paint28_linear_112_742)"/>
<path d="M47.7096 259.296C49.7957 260.572 51.826 261.903 53.7128 263.243C55.5996 264.582 57.5219 265.757 59.1681 266.972C60.8143 268.187 62.1421 269.32 63.2965 270.252C64.1987 270.959 64.9758 271.812 65.5956 272.777C66.3575 274.166 65.3141 274.657 62.9392 274.269C61.4026 273.974 59.8936 273.549 58.4283 273.001C56.3972 272.174 54.4166 271.228 52.4967 270.168C51.4035 269.568 50.3104 268.956 49.2178 268.312C48.1253 267.668 47.1776 266.915 46.1962 266.206C44.3004 264.873 42.4819 263.433 40.7495 261.893C37.674 258.96 35.432 256.303 34.9154 254.73C34.3987 253.158 35.5705 252.922 37.8603 253.837C39.3337 254.417 40.7604 255.109 42.128 255.907C42.9587 256.371 43.8327 256.891 44.761 257.467C45.6892 258.043 46.6498 258.674 47.7096 259.296Z" fill="url(#paint29_linear_112_742)"/>
<path d="M55.0861 253.223C55.9141 255.351 56.8632 257.493 57.858 259.524C58.8472 261.41 59.9501 263.233 61.1605 264.985C62.0994 266.45 63.1872 267.814 64.4064 269.056C65.166 269.897 66.0654 270.6 67.0648 271.134C68.4991 271.773 68.8684 270.654 68.3733 268.376C68.0306 266.951 67.576 265.555 67.0135 264.201C66.3991 262.528 65.6673 260.599 64.7388 258.557C64.2802 257.526 63.7992 256.516 63.3179 255.527C62.8367 254.539 62.4225 253.486 61.963 252.51C61.0552 250.556 60.0674 248.8 59.2101 247.156C57.5402 243.825 55.8778 241.475 54.6668 240.641C53.4558 239.808 52.8135 240.757 52.8127 243.038C52.8721 244.486 53.0684 245.924 53.3991 247.334C53.5847 248.197 53.8133 249.126 54.0851 250.122C54.3529 251.176 54.6873 252.211 55.0861 253.223Z" fill="url(#paint30_linear_112_742)"/>
<path d="M55.1 40.1008C53.4584 42.2807 51.9263 44.5173 50.3285 46.7199L47.9654 49.9913C47.1556 51.0814 46.4877 52.2728 45.7103 53.4075L41.4193 60.3314C40.0399 62.6695 38.7589 65.0642 37.4233 67.425L35.4306 70.9883L33.6456 74.665C32.507 77.1169 31.2367 79.5338 30.1307 82.0193L26.999 89.5445L26.2215 91.4286L25.5427 93.3473L24.2071 97.196L22.8604 101.045C22.4115 102.327 22.0941 103.656 21.7 104.962C20.9779 107.574 20.1677 110.174 19.5334 112.81L17.7839 120.775C17.4557 122.092 17.2923 123.446 17.063 124.787L16.4301 128.811C14.8488 139.575 14.2995 150.465 14.7896 161.333C15.919 183.113 21.3558 204.453 30.7857 224.118C40.2887 243.749 53.7035 261.231 70.2068 275.491C71.4262 276.501 72.9964 277.637 74.7306 278.864C75.1669 279.168 75.6032 279.473 76.0728 279.766L77.5039 280.625L80.4651 282.344L83.3935 284.052L86.2918 285.561C88.1508 286.547 89.8233 287.476 91.1333 288.322" stroke="#C2A740" stroke-width="3.31464" stroke-miterlimit="10"/>
<path d="M287.563 42.3046C288.324 44.5912 289.184 46.8519 290.026 48.9699C290.869 51.0878 291.647 53.2304 292.467 55.0515C293.165 56.657 293.962 58.2174 294.853 59.7236C295.377 60.7364 296.049 61.6657 296.846 62.4809C299.2 64.5956 299.774 58.618 296.996 49.2409C296.663 48.0516 296.298 46.8747 295.921 45.6981C295.545 44.5216 295.051 43.4268 294.589 42.3308C293.656 40.1612 292.671 38.0597 291.695 36.2116C291.207 35.282 290.721 34.4185 290.249 33.6206C289.805 32.8977 289.318 32.2021 288.79 31.5375C288.106 30.5556 287.264 29.6938 286.298 28.987C284.897 28.1037 284.397 29.1707 284.678 31.5861C284.884 33.1163 285.215 34.6269 285.669 36.1026C286.201 37.8907 286.791 40.0185 287.563 42.3046Z" fill="url(#paint31_linear_112_742)"/>
<path d="M279.933 48.0592C281.859 49.3633 283.755 50.7678 285.53 52.1881C287.305 53.6083 288.767 55.195 290.113 56.6318C291.32 57.8836 292.447 59.2103 293.487 60.604C294.172 61.511 294.679 62.5391 294.983 63.6342C295.611 66.753 290.48 64.117 283.07 58.7238L277.726 54.5851C275.998 53.2293 274.412 51.8789 273.028 50.5869C272.341 49.9407 271.711 49.3254 271.136 48.719C270.561 48.1126 269.99 47.5943 269.528 47.0718C268.762 46.3049 268.134 45.4113 267.673 44.4305C267.155 43.0168 268.255 42.6545 270.493 43.2186C271.919 43.6347 273.305 44.1752 274.636 44.834C276.466 45.8002 278.235 46.8772 279.933 48.0592Z" fill="url(#paint32_linear_112_742)"/>
<path d="M271.462 26.34C272.545 27.5224 273.636 28.6492 274.586 29.8256C275.536 31.002 276.451 32.1577 277.265 33.2291C278.95 35.4469 280.408 37.519 281.566 39.2278C283.757 42.8376 284.757 45.3135 284.189 45.7435C283.621 46.1735 281.582 44.4878 278.7 41.5443C277.189 40.1138 275.467 38.3607 273.614 36.3479C272.693 35.3469 271.737 34.292 270.766 33.1495C269.795 32.0069 268.688 31.0241 267.626 29.8079C265.486 27.5085 263.502 25.2692 261.746 23.1865C259.989 21.1039 258.288 19.3389 256.958 17.725C254.319 14.5184 252.919 12.2456 253.417 11.719C253.915 11.1924 256.194 12.516 259.525 15.0892C261.185 16.3926 263.122 17.983 265.223 19.8428C267.324 21.7026 269.287 23.9868 271.462 26.34Z" fill="url(#paint33_linear_112_742)"/>
<path d="M303.566 66.5664C304.13 68.8937 304.533 71.3264 305.072 73.5775C305.611 75.8285 306.178 77.9461 306.793 79.8634C307.836 83.7492 308.944 86.7172 310.026 87.8885C311.108 89.0598 311.914 88.2346 312.319 85.8809C312.555 84.3485 312.653 82.7983 312.614 81.2485C312.578 80.3125 312.538 79.2774 312.496 78.1872C312.454 77.097 312.235 75.9916 312.043 74.7417C311.366 70.0641 310.16 65.4785 308.449 61.073C307.791 59.3431 307.026 57.6563 306.158 56.0222C305.834 55.4101 305.476 54.8165 305.086 54.244C304.779 53.851 304.429 53.4945 304.041 53.1815C302.732 52.1293 302.109 53.1349 302.125 55.5495C302.219 59.2621 302.701 62.9547 303.566 66.5664Z" fill="url(#paint34_linear_112_742)"/>
<path d="M295.256 71.2776C297.005 72.7771 298.638 74.4061 300.142 76.1508C301.652 77.8349 303.03 79.5242 304.227 81.0991C306.436 84.3223 307.849 87.2122 307.986 88.762C308.123 90.3117 306.943 90.3022 304.943 89.0781C303.694 88.2585 302.512 87.3417 301.407 86.3363C300.734 85.7558 300.037 85.11 299.304 84.4104C298.571 83.7109 297.727 82.9936 296.913 82.1979C293.559 79.019 290.617 75.6698 288.061 72.8681C286.977 71.6278 285.976 70.3181 285.064 68.9475C284.727 68.4347 284.423 67.9013 284.153 67.3505C283.928 66.9535 283.753 66.5307 283.63 66.0914C283.265 64.6497 284.414 64.4178 286.576 65.2717C289.735 66.8592 292.657 68.8808 295.256 71.2776Z" fill="url(#paint35_linear_112_742)"/>
<path d="M316.021 92.9173C316.115 95.351 316.307 97.7588 316.561 100.054C316.815 102.349 316.902 104.596 317.166 106.581C317.431 108.567 317.807 110.306 318.095 111.762C318.273 112.903 318.64 114.007 319.18 115.029C320.026 116.364 320.97 115.676 321.775 113.395C322.283 111.92 322.63 110.394 322.812 108.845C323.027 106.995 323.163 104.806 323.2 102.323C323.152 101.09 323.203 99.8413 323.166 98.5965C323.129 97.3518 322.95 96.1566 322.827 94.9592C322.536 92.5663 322.161 90.2758 321.738 88.1967C321.371 86.3733 320.833 84.5885 320.132 82.8659C319.736 81.7221 319.158 80.6496 318.421 79.6896C317.27 78.4438 316.544 79.3541 316.163 81.7731C315.783 84.192 315.907 87.981 316.021 92.9173Z" fill="url(#paint36_linear_112_742)"/>
<path d="M307.099 96.3502C308.579 98.1237 309.997 99.9879 311.304 101.856C312.612 103.725 313.546 105.641 314.441 107.404C315.264 108.936 315.953 110.537 316.501 112.188C316.864 113.264 317.042 114.395 317.027 115.531C316.89 117.102 315.735 116.893 313.988 115.362C312.913 114.36 311.9 113.294 310.953 112.17C309.799 110.837 308.446 109.235 307.097 107.423C306.412 106.523 305.758 105.6 305.128 104.687C304.497 103.774 303.779 102.897 303.16 102.006C301.89 100.235 300.819 98.5119 299.809 96.9187C298.799 95.3255 297.951 93.9136 297.362 92.6681C296.845 91.7356 296.5 90.7181 296.342 89.6637C296.284 88.177 297.385 88.1125 299.348 89.2717C302.311 91.1794 304.931 93.5723 307.099 96.3502Z" fill="url(#paint37_linear_112_742)"/>
<path d="M324.359 120.895C323.222 130.577 322.682 140.292 323.843 143.225C324.44 144.68 325.489 144.154 326.686 142.012C327.419 140.646 327.992 139.199 328.394 137.7C329.011 135.599 329.517 133.466 329.911 131.311C330.151 130.095 330.32 128.866 330.42 127.63C330.527 126.402 330.623 125.174 330.686 123.959C330.749 122.743 330.793 121.594 330.817 120.491C330.795 119.918 330.84 119.387 330.817 118.792L330.755 117.173C330.404 112.963 329.745 109.603 328.874 108.181C328.406 107.482 327.937 107.335 327.519 107.637C326.925 108.27 326.506 109.046 326.304 109.89C325.275 113.481 324.623 117.169 324.359 120.895Z" fill="url(#paint38_linear_112_742)"/>
<path d="M315.006 122.867C319.723 130.779 322.508 140.355 321.633 143.399C321.218 144.926 320.123 144.561 318.673 142.72C317.988 141.82 317.08 140.576 316.139 139.068C315.199 137.56 314.202 135.757 313.199 133.756C312.719 132.748 312.15 131.745 311.627 130.75C311.103 129.756 310.613 128.771 310.145 127.797C309.677 126.822 309.254 125.868 308.854 124.935L308.272 123.568L307.671 122.268C306.149 118.864 305.302 116.062 305.465 114.578C305.525 113.837 305.819 113.462 306.351 113.518C307.161 113.67 307.905 114.069 308.479 114.66C311.031 117.074 313.228 119.837 315.006 122.867Z" fill="url(#paint39_linear_112_742)"/>
<path d="M327.93 149.927C327.292 152.257 326.545 154.613 325.992 156.862L324.529 163.227C324.12 164.938 323.818 166.674 323.627 168.423C323.56 169.08 323.53 169.74 323.538 170.4C323.509 170.882 323.528 171.365 323.594 171.843C323.929 173.385 325.052 173.055 326.601 171.175C328.717 168.082 330.408 164.72 331.629 161.177C334.863 151.832 335.818 141.163 334.386 138.065C333.687 136.526 332.685 137.149 331.612 139.33C330.051 142.737 328.818 146.286 327.93 149.927Z" fill="url(#paint40_linear_112_742)"/>
<path d="M318.382 150.285C319.204 152.42 319.892 154.603 320.443 156.823C321.034 158.874 321.447 160.972 321.678 163.094C321.884 164.818 321.984 166.552 321.978 168.288C321.97 168.939 321.925 169.589 321.844 170.234C321.764 170.7 321.626 171.153 321.433 171.585C320.75 173.023 319.734 172.433 318.642 170.413C317.005 167.305 315.713 164.026 314.79 160.637C311.898 152.025 309.71 143.353 310.327 140.484C310.658 139.059 311.771 139.325 313.327 141.062C314.883 142.8 316.562 145.988 318.382 150.285Z" fill="url(#paint41_linear_112_742)"/>
<path d="M326.477 179.109C325.991 180.231 325.459 181.299 324.906 182.39C324.352 183.481 323.887 184.558 323.398 185.614C322.443 187.735 321.663 189.794 320.83 191.635C320.136 193.249 319.541 194.904 319.047 196.59C318.862 197.225 318.718 197.872 318.614 198.526C318.504 198.994 318.452 199.473 318.46 199.954C318.521 201.54 319.619 201.398 321.532 199.835C324.165 197.161 326.419 194.139 328.232 190.853C329.384 188.691 330.465 186.421 331.438 184.189C331.902 183.068 332.399 181.946 332.753 180.83C333.107 179.713 333.43 178.664 333.733 177.649C334.251 175.843 334.662 174.007 334.965 172.153C335.169 170.944 335.159 169.709 334.934 168.504C334.06 165.284 330.707 170.41 326.477 179.109Z" fill="url(#paint42_linear_112_742)"/>
<path d="M317.021 177.843C317.277 178.97 317.465 180.112 317.583 181.262C317.725 182.359 317.837 183.546 317.924 184.667C318.14 186.791 318.182 188.929 318.05 191.059C317.954 192.791 317.752 194.515 317.444 196.222C317.326 196.863 317.167 197.495 316.966 198.115C316.806 198.568 316.589 198.999 316.321 199.397C315.411 200.69 314.511 199.941 313.776 197.764C312.714 194.42 312.011 190.972 311.68 187.478C311.306 185.221 311.01 182.983 310.819 180.895C310.7 179.796 310.672 178.794 310.556 177.784C310.439 176.774 310.357 175.795 310.3 174.871C310.176 173.257 310.164 171.636 310.267 170.02C310.268 168.969 310.432 167.925 310.753 166.924C311.885 164.233 315.138 168.784 317.021 177.843Z" fill="url(#paint43_linear_112_742)"/>
<path d="M319.994 207.681C314.221 215.547 308.911 223.681 308.436 226.799C308.232 228.373 309.393 228.438 311.484 227.199C312.804 226.385 314.025 225.42 315.123 224.324C316.714 222.806 318.224 221.205 319.647 219.528C325.901 211.864 330.443 202.115 330.147 198.73C330.027 197.047 328.867 197.302 327.102 198.98C326.655 199.406 326.189 199.92 325.661 200.503C325.132 201.086 324.54 201.748 323.929 202.489C322.706 203.948 321.384 205.708 319.994 207.681Z" fill="url(#paint44_linear_112_742)"/>
<path d="M310.904 204.757C311.094 213.958 308.724 223.667 306.438 225.884C305.325 227.03 304.572 226.099 304.219 223.819C304.066 222.722 303.918 221.173 303.85 219.422C303.783 217.671 303.824 215.596 303.947 213.364C304.192 204.3 305.106 195.408 306.642 192.934C308.179 190.459 310.612 195.493 310.904 204.757Z" fill="url(#paint45_linear_112_742)"/>
<path d="M308.641 234.666C305.007 237.96 301.782 241.548 298.983 244.457C297.795 245.749 296.68 247.107 295.644 248.524C294.894 249.393 294.295 250.381 293.871 251.449C293.4 252.956 294.536 253.221 296.797 252.372C299.058 251.524 302.34 249.423 306.177 246.253L307.619 245.039L308.893 243.755C309.775 242.893 310.633 242 311.459 241.108C313.081 239.444 314.572 237.657 315.918 235.763C318.364 232.283 320.079 229.294 320.189 227.58C320.299 225.867 319.178 225.943 317.146 227.301C314.078 229.474 311.23 231.941 308.641 234.666Z" fill="url(#paint46_linear_112_742)"/>
<path d="M300.197 230.194C299.493 234.561 298.281 238.831 296.586 242.918C295.925 244.537 295.157 246.11 294.287 247.627C293.695 248.593 292.95 249.457 292.081 250.183C290.793 251.093 290.202 250.068 290.244 247.751C290.477 244.259 291.004 240.793 291.818 237.389L292.218 235.752L292.562 234.096C292.795 232.984 293.041 231.927 293.309 230.891C293.835 228.808 294.444 226.877 294.915 225.072C295.504 222.442 296.574 219.945 298.071 217.704C299.067 216.64 299.892 217.446 300.354 219.689C300.815 221.932 300.768 225.562 300.197 230.194Z" fill="url(#paint47_linear_112_742)"/>
<path d="M292.672 259.203C290.617 260.529 288.619 261.907 286.765 263.291C284.91 264.676 283.017 265.896 281.4 267.149C279.783 268.403 278.482 269.567 277.35 270.526C276.465 271.255 275.709 272.126 275.112 273.105C274.383 274.512 275.438 274.978 277.803 274.534C279.332 274.202 280.831 273.742 282.283 273.159C284.293 272.284 286.251 271.291 288.145 270.186C289.224 269.56 290.302 268.923 291.379 268.252C292.456 267.582 293.385 266.807 294.35 266.075C296.213 264.697 297.997 263.214 299.692 261.634C302.697 258.628 304.875 255.919 305.355 254.335C305.834 252.75 304.657 252.542 302.389 253.512C300.93 254.126 299.52 254.852 298.172 255.682C297.352 256.166 296.491 256.706 295.577 257.304C294.662 257.902 293.717 258.556 292.672 259.203Z" fill="url(#paint48_linear_112_742)"/>
<path d="M285.154 253.307C284.377 255.455 283.479 257.618 282.532 259.673C281.588 261.581 280.529 263.43 279.361 265.21C278.457 266.697 277.402 268.087 276.212 269.357C275.473 270.216 274.591 270.941 273.604 271.498C272.185 272.171 271.79 271.061 272.231 268.772C272.539 267.339 272.961 265.933 273.491 264.566C274.065 262.878 274.751 260.933 275.631 258.87C276.064 257.827 276.521 256.806 276.979 255.807C277.437 254.808 277.826 253.745 278.262 252.757C279.123 250.783 280.069 249.004 280.887 247.34C282.477 243.97 284.083 241.581 285.274 240.719C286.465 239.857 287.129 240.791 287.184 243.071C287.159 244.52 286.997 245.962 286.7 247.38C286.535 248.247 286.329 249.181 286.081 250.183C285.838 251.243 285.528 252.286 285.154 253.307Z" fill="url(#paint49_linear_112_742)"/>
<path d="M280.073 40.2456C281.766 42.3858 283.35 44.5854 285 46.7494L287.44 49.9636C288.276 51.0342 288.972 52.2094 289.776 53.3253L294.23 60.1452C295.665 62.4498 297.003 64.8133 298.394 67.1417L300.471 70.6567L302.343 74.2899C303.539 76.7141 304.867 79.1001 306.032 81.5585L309.341 89.0072L310.163 90.8723L310.887 92.7743L312.314 96.5901L313.752 100.406C314.231 101.677 314.58 102.998 315.005 104.294C315.789 106.889 316.661 109.469 317.358 112.089L319.296 120.009C319.656 121.319 319.851 122.668 320.112 124.003L320.841 128.012C322.677 138.735 323.486 149.609 323.254 160.485C322.643 182.286 317.715 203.749 308.755 223.633C299.722 243.484 286.726 261.28 270.567 275.928C269.372 276.967 267.829 278.14 266.124 279.408C265.695 279.723 265.266 280.037 264.804 280.342L263.394 281.234L260.474 283.024L257.587 284.801L254.726 286.378C252.891 287.408 251.241 288.376 249.951 289.253" stroke="#C2A740" stroke-width="3.31464" stroke-miterlimit="10"/>
<defs>
<linearGradient id="paint0_linear_112_742" x1="68.9779" y1="101.184" x2="99.7478" y2="47.7967" gradientUnits="userSpaceOnUse">
<stop stop-color="#EAD766"/>
<stop offset="0.69" stop-color="#C2A740"/>
<stop offset="1" stop-color="#CCB440"/>
</linearGradient>
<linearGradient id="paint1_linear_112_742" x1="127.942" y1="101.184" x2="158.712" y2="47.7967" gradientUnits="userSpaceOnUse">
<stop stop-color="#EAD766"/>
<stop offset="0.69" stop-color="#C2A740"/>
<stop offset="1" stop-color="#CCB440"/>
</linearGradient>
<linearGradient id="paint2_linear_112_742" x1="223.705" y1="34.8288" x2="170.973" y2="95.0769" gradientUnits="userSpaceOnUse">
<stop stop-color="#FFFED6"/>
<stop offset="0.59375" stop-color="#EBD762"/>
<stop offset="1" stop-color="#EDDD64"/>
</linearGradient>
<linearGradient id="paint3_linear_112_742" x1="280.14" y1="34.8288" x2="228.418" y2="100.488" gradientUnits="userSpaceOnUse">
<stop stop-color="#FFFED6"/>
<stop offset="0.59375" stop-color="#EBD762"/>
<stop offset="1" stop-color="#EDDD64"/>
</linearGradient>
<linearGradient id="paint4_linear_112_742" x1="98.272" y1="111.737" x2="96.4096" y2="189.974" gradientUnits="userSpaceOnUse">
<stop stop-color="#E1CD5A"/>
<stop offset="0.59375" stop-color="#EBD762"/>
<stop offset="1" stop-color="#EDDD64"/>
</linearGradient>
<linearGradient id="paint5_linear_112_742" x1="170.665" y1="110.115" x2="168.977" y2="190.001" gradientUnits="userSpaceOnUse">
<stop stop-color="#E1CD5A"/>
<stop offset="0.59375" stop-color="#EBD762"/>
<stop offset="1" stop-color="#EDDD64"/>
</linearGradient>
<linearGradient id="paint6_linear_112_742" x1="246.342" y1="111.736" x2="244.743" y2="190.029" gradientUnits="userSpaceOnUse">
<stop stop-color="#D1BA53"/>
<stop offset="0.59375" stop-color="#EBD762"/>
<stop offset="1" stop-color="#D4BE56"/>
</linearGradient>
<linearGradient id="paint7_linear_112_742" x1="83.4597" y1="200.202" x2="82.4849" y2="246.771" gradientUnits="userSpaceOnUse">
<stop stop-color="#E1CD5A"/>
<stop offset="0.59375" stop-color="#EBD762"/>
<stop offset="1" stop-color="#EDDD64"/>
</linearGradient>
<linearGradient id="paint8_linear_112_742" x1="129.177" y1="200.33" x2="128.22" y2="245.687" gradientUnits="userSpaceOnUse">
<stop stop-color="#E1CD5A"/>
<stop offset="0.59375" stop-color="#EBD762"/>
<stop offset="1" stop-color="#EDDD64"/>
</linearGradient>
<linearGradient id="paint9_linear_112_742" x1="183.753" y1="201.258" x2="183.04" y2="245.71" gradientUnits="userSpaceOnUse">
<stop stop-color="#E1CD5A"/>
<stop offset="0.59375" stop-color="#EBD762"/>
<stop offset="1" stop-color="#EDDD64"/>
</linearGradient>
<linearGradient id="paint10_linear_112_742" x1="231.011" y1="201.258" x2="229.938" y2="245.696" gradientUnits="userSpaceOnUse">
<stop stop-color="#E1CD5A"/>
<stop offset="0.59375" stop-color="#EBD762"/>
<stop offset="1" stop-color="#EDDD64"/>
</linearGradient>
<linearGradient id="paint11_linear_112_742" x1="268.748" y1="200.206" x2="267.226" y2="246.696" gradientUnits="userSpaceOnUse">
<stop stop-color="#E1CD5A"/>
<stop offset="0.59375" stop-color="#EBD762"/>
<stop offset="1" stop-color="#EDDD64"/>
</linearGradient>
<linearGradient id="paint12_linear_112_742" x1="45.515" y1="28.1067" x2="42.9996" y2="62.5953" gradientUnits="userSpaceOnUse">
<stop stop-color="#E1CD5A"/>
<stop offset="0.59375" stop-color="#EBD762"/>
<stop offset="1" stop-color="#EDDD64"/>
</linearGradient>
<linearGradient id="paint13_linear_112_742" x1="57.8462" y1="42.0893" x2="57.0717" y2="65.0179" gradientUnits="userSpaceOnUse">
<stop stop-color="#E1CD5A"/>
<stop offset="0.59375" stop-color="#EBD762"/>
<stop offset="1" stop-color="#EDDD64"/>
</linearGradient>
<linearGradient id="paint14_linear_112_742" x1="70.1881" y1="10.1746" x2="68.742" y2="45.443" gradientUnits="userSpaceOnUse">
<stop stop-color="#E1CD5A"/>
<stop offset="0.59375" stop-color="#EBD762"/>
<stop offset="1" stop-color="#EDDD64"/>
</linearGradient>
<linearGradient id="paint15_linear_112_742" x1="29.9562" y1="52.6121" x2="26.4641" y2="88.2047" gradientUnits="userSpaceOnUse">
<stop stop-color="#E1CD5A"/>
<stop offset="0.59375" stop-color="#EBD762"/>
<stop offset="1" stop-color="#EDDD64"/>
</linearGradient>
<linearGradient id="paint16_linear_112_742" x1="43.527" y1="64.2388" x2="42.5081" y2="90.2286" gradientUnits="userSpaceOnUse">
<stop stop-color="#E1CD5A"/>
<stop offset="0.59375" stop-color="#EBD762"/>
<stop offset="1" stop-color="#EDDD64"/>
</linearGradient>
<linearGradient id="paint17_linear_112_742" x1="18.0638" y1="79.3292" x2="13.3267" y2="115.381" gradientUnits="userSpaceOnUse">
<stop stop-color="#E1CD5A"/>
<stop offset="0.59375" stop-color="#EBD762"/>
<stop offset="1" stop-color="#EDDD64"/>
</linearGradient>
<linearGradient id="paint18_linear_112_742" x1="32.7468" y1="88.2056" x2="31.3915" y2="116.988" gradientUnits="userSpaceOnUse">
<stop stop-color="#E1CD5A"/>
<stop offset="0.59375" stop-color="#EBD762"/>
<stop offset="1" stop-color="#EDDD64"/>
</linearGradient>
<linearGradient id="paint19_linear_112_742" x1="11.6802" y1="107.979" x2="7.69846" y2="143.961" gradientUnits="userSpaceOnUse">
<stop stop-color="#E1CD5A"/>
<stop offset="0.59375" stop-color="#EBD762"/>
<stop offset="1" stop-color="#EDDD64"/>
</linearGradient>
<linearGradient id="paint20_linear_112_742" x1="25.8775" y1="113.445" x2="24.0037" y2="144.702" gradientUnits="userSpaceOnUse">
<stop stop-color="#E1CD5A"/>
<stop offset="0.59375" stop-color="#EBD762"/>
<stop offset="1" stop-color="#EDDD64"/>
</linearGradient>
<linearGradient id="paint21_linear_112_742" x1="10.6023" y1="137.9" x2="7.93027" y2="172.925" gradientUnits="userSpaceOnUse">
<stop stop-color="#E1CD5A"/>
<stop offset="0.59375" stop-color="#EBD762"/>
<stop offset="1" stop-color="#EDDD64"/>
</linearGradient>
<linearGradient id="paint22_linear_112_742" x1="23.4316" y1="139.61" x2="20.7122" y2="172.538" gradientUnits="userSpaceOnUse">
<stop stop-color="#E1CD5A"/>
<stop offset="0.59375" stop-color="#EBD762"/>
<stop offset="1" stop-color="#EDDD64"/>
</linearGradient>
<linearGradient id="paint23_linear_112_742" x1="14.4154" y1="168.315" x2="12.5906" y2="201.147" gradientUnits="userSpaceOnUse">
<stop stop-color="#E1CD5A"/>
<stop offset="0.59375" stop-color="#EBD762"/>
<stop offset="1" stop-color="#EDDD64"/>
</linearGradient>
<linearGradient id="paint24_linear_112_742" x1="25.5254" y1="166.219" x2="21.6069" y2="199.779" gradientUnits="userSpaceOnUse">
<stop stop-color="#E1CD5A"/>
<stop offset="0.59375" stop-color="#EBD762"/>
<stop offset="1" stop-color="#EDDD64"/>
</linearGradient>
<linearGradient id="paint25_linear_112_742" x1="23.1976" y1="198.344" x2="21.9115" y2="227.947" gradientUnits="userSpaceOnUse">
<stop stop-color="#E1CD5A"/>
<stop offset="0.59375" stop-color="#EBD762"/>
<stop offset="1" stop-color="#EDDD64"/>
</linearGradient>
<linearGradient id="paint26_linear_112_742" x1="33.1772" y1="192.308" x2="29.3853" y2="225.865" gradientUnits="userSpaceOnUse">
<stop stop-color="#E1CD5A"/>
<stop offset="0.59375" stop-color="#EBD762"/>
<stop offset="1" stop-color="#EDDD64"/>
</linearGradient>
<linearGradient id="paint27_linear_112_742" x1="36.6888" y1="226.9" x2="35.7842" y2="252.445" gradientUnits="userSpaceOnUse">
<stop stop-color="#E1CD5A"/>
<stop offset="0.59375" stop-color="#EBD762"/>
<stop offset="1" stop-color="#EDDD64"/>
</linearGradient>
<linearGradient id="paint28_linear_112_742" x1="46.1216" y1="217.1" x2="43.5512" y2="249.852" gradientUnits="userSpaceOnUse">
<stop stop-color="#E1CD5A"/>
<stop offset="0.59375" stop-color="#EBD762"/>
<stop offset="1" stop-color="#EDDD64"/>
</linearGradient>
<linearGradient id="paint29_linear_112_742" x1="54.5409" y1="253.283" x2="53.9351" y2="273.919" gradientUnits="userSpaceOnUse">
<stop stop-color="#E1CD5A"/>
<stop offset="0.59375" stop-color="#EBD762"/>
<stop offset="1" stop-color="#EDDD64"/>
</linearGradient>
<linearGradient id="paint30_linear_112_742" x1="63.04" y1="240.035" x2="61.3025" y2="270.686" gradientUnits="userSpaceOnUse">
<stop stop-color="#E1CD5A"/>
<stop offset="0.59375" stop-color="#EBD762"/>
<stop offset="1" stop-color="#EDDD64"/>
</linearGradient>
<linearGradient id="paint31_linear_112_742" x1="289.37" y1="28.0269" x2="292.704" y2="62.446" gradientUnits="userSpaceOnUse">
<stop stop-color="#E1CD5A"/>
<stop offset="0.59375" stop-color="#EBD762"/>
<stop offset="1" stop-color="#EDDD64"/>
</linearGradient>
<linearGradient id="paint32_linear_112_742" x1="277.374" y1="42.2989" x2="278.694" y2="65.2026" gradientUnits="userSpaceOnUse">
<stop stop-color="#E1CD5A"/>
<stop offset="0.59375" stop-color="#EBD762"/>
<stop offset="1" stop-color="#EDDD64"/>
</linearGradient>
<linearGradient id="paint33_linear_112_742" x1="252.079" y1="1.66295" x2="288.504" y2="37.6506" gradientUnits="userSpaceOnUse">
<stop stop-color="#FFFED6"/>
<stop offset="0.59375" stop-color="#EBD762"/>
<stop offset="1" stop-color="#EDDD64"/>
</linearGradient>
<linearGradient id="paint34_linear_112_742" x1="305.507" y1="52.1555" x2="309.844" y2="87.6551" gradientUnits="userSpaceOnUse">
<stop stop-color="#E1CD5A"/>
<stop offset="0.59375" stop-color="#EBD762"/>
<stop offset="1" stop-color="#EDDD64"/>
</linearGradient>
<linearGradient id="paint35_linear_112_742" x1="292.216" y1="64.1016" x2="293.853" y2="90.0599" gradientUnits="userSpaceOnUse">
<stop stop-color="#E1CD5A"/>
<stop offset="0.59375" stop-color="#EBD762"/>
<stop offset="1" stop-color="#EDDD64"/>
</linearGradient>
<linearGradient id="paint36_linear_112_742" x1="318.031" y1="78.5823" x2="323.624" y2="114.512" gradientUnits="userSpaceOnUse">
<stop stop-color="#E1CD5A"/>
<stop offset="0.59375" stop-color="#EBD762"/>
<stop offset="1" stop-color="#EDDD64"/>
</linearGradient>
<linearGradient id="paint37_linear_112_742" x1="303.563" y1="87.8053" x2="305.602" y2="116.547" gradientUnits="userSpaceOnUse">
<stop stop-color="#E1CD5A"/>
<stop offset="0.59375" stop-color="#EBD762"/>
<stop offset="1" stop-color="#EDDD64"/>
</linearGradient>
<linearGradient id="paint38_linear_112_742" x1="325.094" y1="107.072" x2="329.93" y2="142.949" gradientUnits="userSpaceOnUse">
<stop stop-color="#E1CD5A"/>
<stop offset="0.59375" stop-color="#EBD762"/>
<stop offset="1" stop-color="#EDDD64"/>
</linearGradient>
<linearGradient id="paint39_linear_112_742" x1="311.031" y1="112.874" x2="313.647" y2="144.078" gradientUnits="userSpaceOnUse">
<stop stop-color="#E1CD5A"/>
<stop offset="0.59375" stop-color="#EBD762"/>
<stop offset="1" stop-color="#EDDD64"/>
</linearGradient>
<linearGradient id="paint40_linear_112_742" x1="326.883" y1="136.959" x2="330.387" y2="171.911" gradientUnits="userSpaceOnUse">
<stop stop-color="#E1CD5A"/>
<stop offset="0.59375" stop-color="#EBD762"/>
<stop offset="1" stop-color="#EDDD64"/>
</linearGradient>
<linearGradient id="paint41_linear_112_742" x1="314.098" y1="138.974" x2="317.6" y2="171.827" gradientUnits="userSpaceOnUse">
<stop stop-color="#E1CD5A"/>
<stop offset="0.59375" stop-color="#EBD762"/>
<stop offset="1" stop-color="#EDDD64"/>
</linearGradient>
<linearGradient id="paint42_linear_112_742" x1="323.794" y1="167.457" x2="326.399" y2="200.236" gradientUnits="userSpaceOnUse">
<stop stop-color="#E1CD5A"/>
<stop offset="0.59375" stop-color="#EBD762"/>
<stop offset="1" stop-color="#EDDD64"/>
</linearGradient>
<linearGradient id="paint43_linear_112_742" x1="312.637" y1="165.625" x2="317.353" y2="199.082" gradientUnits="userSpaceOnUse">
<stop stop-color="#E1CD5A"/>
<stop offset="0.59375" stop-color="#EBD762"/>
<stop offset="1" stop-color="#EDDD64"/>
</linearGradient>
<linearGradient id="paint44_linear_112_742" x1="315.728" y1="197.685" x2="317.718" y2="227.25" gradientUnits="userSpaceOnUse">
<stop stop-color="#E1CD5A"/>
<stop offset="0.59375" stop-color="#EBD762"/>
<stop offset="1" stop-color="#EDDD64"/>
</linearGradient>
<linearGradient id="paint45_linear_112_742" x1="305.608" y1="191.888" x2="310.197" y2="225.346" gradientUnits="userSpaceOnUse">
<stop stop-color="#E1CD5A"/>
<stop offset="0.59375" stop-color="#EBD762"/>
<stop offset="1" stop-color="#EDDD64"/>
</linearGradient>
<linearGradient id="paint46_linear_112_742" x1="302.92" y1="226.555" x2="304.432" y2="252.07" gradientUnits="userSpaceOnUse">
<stop stop-color="#E1CD5A"/>
<stop offset="0.59375" stop-color="#EBD762"/>
<stop offset="1" stop-color="#EDDD64"/>
</linearGradient>
<linearGradient id="paint47_linear_112_742" x1="293.257" y1="216.981" x2="296.605" y2="249.663" gradientUnits="userSpaceOnUse">
<stop stop-color="#E1CD5A"/>
<stop offset="0.59375" stop-color="#EBD762"/>
<stop offset="1" stop-color="#EDDD64"/>
</linearGradient>
<linearGradient id="paint48_linear_112_742" x1="285.7" y1="253.354" x2="286.796" y2="273.97" gradientUnits="userSpaceOnUse">
<stop stop-color="#E1CD5A"/>
<stop offset="0.59375" stop-color="#EBD762"/>
<stop offset="1" stop-color="#EDDD64"/>
</linearGradient>
<linearGradient id="paint49_linear_112_742" x1="276.888" y1="240.312" x2="279.354" y2="270.913" gradientUnits="userSpaceOnUse">
<stop stop-color="#E1CD5A"/>
<stop offset="0.59375" stop-color="#EBD762"/>
<stop offset="1" stop-color="#EDDD64"/>
</linearGradient>
</defs>
</svg>
